<?xml version="1.0" standalone="no"?>
<!DOCTYPE svg PUBLIC "-//W3C//DTD SVG 20010904//EN"
 "http://www.w3.org/TR/2001/REC-SVG-20010904/DTD/svg10.dtd">
<svg version="1.0" xmlns="http://www.w3.org/2000/svg"
 width="225.000000pt" height="225.000000pt" viewBox="0 0 225.000000 225.000000"
 preserveAspectRatio="xMidYMid meet">

<g transform="translate(0.000000,225.000000) scale(0.100000,-0.100000)"
fill="#000000" stroke="none">
<path d="M997 2103 c-2 -5 -7 -25 -11 -45 -9 -47 -18 -48 -35 -3 -8 23 -19 35
-31 35 -30 0 -33 -16 -11 -66 12 -26 21 -58 21 -73 0 -18 3 -22 9 -12 9 14 24
-41 36 -131 3 -27 11 -48 16 -48 6 0 8 4 4 9 -3 5 -1 12 5 16 6 3 14 -4 19
-16 l8 -23 6 25 c4 14 2 41 -4 60 -11 37 -2 169 11 169 5 0 9 25 9 55 0 51 -2
55 -24 55 -13 0 -26 -3 -28 -7z"/>
<path d="M1244 2080 c-23 -9 -54 -75 -54 -114 0 -23 32 -74 57 -89 18 -11 16
-47 -2 -47 -8 0 -15 8 -15 18 0 12 -2 14 -8 4 -5 -7 -16 -10 -24 -7 -21 8 -32
-26 -23 -73 5 -25 9 -32 15 -22 6 10 12 11 22 2 8 -6 19 -7 28 -2 19 12 30 3
24 -18 -3 -9 2 -6 10 8 14 23 15 23 17 5 2 -33 21 77 21 124 -1 33 -8 52 -31
82 -17 21 -31 43 -31 49 0 21 44 5 57 -20 11 -22 13 -22 13 -5 0 11 3 36 6 55
5 32 3 37 -20 48 -31 14 -33 14 -62 2z"/>
<path d="M1387 2003 c-44 -164 -51 -189 -60 -200 -5 -7 -6 -24 -3 -38 6 -24
21 -30 74 -28 6 1 12 -9 13 -21 1 -35 27 43 28 84 1 26 -2 31 -9 20 -8 -13
-11 -13 -25 1 -20 19 -10 50 13 42 9 -4 20 -11 24 -16 3 -6 12 8 19 31 11 39
11 43 -12 61 -20 16 -22 22 -11 33 10 10 14 10 21 0 11 -17 38 6 46 39 7 27
-5 38 -50 44 -11 2 -27 6 -35 9 -12 5 -19 -9 -33 -61z"/>
<path d="M778 2049 c-13 -7 -18 -23 -18 -54 0 -58 -16 -66 -31 -15 -11 34 -16
40 -41 40 -32 0 -33 -5 -13 -40 8 -14 14 -36 15 -48 0 -13 6 -36 14 -50 8 -15
24 -60 36 -99 25 -81 41 -102 63 -82 12 11 12 21 1 64 -21 77 -16 85 17 28 17
-29 35 -54 40 -54 19 -3 24 -5 35 -12 7 -4 14 1 17 12 4 17 -51 111 -88 147
-13 13 -15 26 -9 58 8 45 8 49 6 89 -2 28 -15 33 -44 16z"/>
<path d="M1597 1922 c-19 -27 -61 -80 -94 -118 -63 -74 -83 -102 -65 -90 6 3
17 0 24 -8 11 -12 17 -11 42 12 18 17 30 23 33 15 2 -7 11 -9 19 -6 18 7 18
-8 -1 -53 -14 -34 -14 -35 5 -29 11 4 20 2 20 -4 0 -6 4 -11 8 -11 11 0 46 99
93 262 14 51 10 61 -27 72 -18 5 -28 -2 -57 -42z m8 -88 c-9 -15 -12 -23 -6
-20 6 4 11 3 11 -3 0 -15 -14 -21 -29 -11 -11 6 -9 14 9 40 26 37 40 32 15 -6z"/>
<path d="M508 1925 c-15 -9 -29 -27 -32 -42 -19 -86 97 -263 169 -259 17 1 38
-5 49 -14 17 -14 18 -13 12 7 -4 12 0 37 8 58 15 34 14 39 -4 75 -11 22 -20
46 -20 54 0 23 -113 136 -135 136 -11 -1 -32 -7 -47 -15z m112 -123 c38 -57
40 -92 6 -92 -27 0 -66 44 -86 94 -17 46 -4 42 25 -8 35 -60 44 -60 11 0 -31
56 -32 64 -6 57 11 -3 33 -26 50 -51z"/>
<path d="M1774 1818 c-49 -38 -64 -61 -62 -94 1 -17 -5 -42 -14 -55 -16 -24
-16 -24 -32 -4 -15 20 -15 20 -33 -5 -18 -25 -43 -69 -43 -76 0 -2 6 -1 13 2
8 3 20 -2 27 -11 7 -8 19 -15 27 -15 9 0 13 -6 10 -14 -4 -11 -1 -13 10 -9 12
5 14 3 9 -8 -5 -8 15 10 43 38 56 59 66 83 58 149 -5 47 1 58 28 48 13 -5 15
-14 11 -38 l-6 -30 35 34 c41 40 44 58 12 88 -30 28 -57 28 -93 0z m-44 -157
c0 -20 -27 -48 -37 -37 -8 7 17 56 29 56 4 0 8 -8 8 -19z"/>
<path d="M296 1759 c-44 -34 -30 -96 40 -177 38 -45 136 -110 142 -94 1 5 12
8 22 5 13 -3 20 0 20 8 0 10 3 10 12 1 16 -16 33 -16 20 1 -6 7 -7 29 -3 52 6
35 3 45 -26 85 -43 60 -60 76 -112 111 -53 34 -79 36 -115 8z m141 -105 c43
-40 53 -67 32 -79 -6 -4 -22 4 -37 16 -26 23 -26 23 -8 2 35 -42 -1 -23 -43
22 -45 48 -44 47 -35 68 10 26 46 14 91 -29z"/>
<path d="M350 1677 c0 -2 15 -16 33 -33 l32 -29 -29 33 c-28 30 -36 37 -36 29z"/>
<path d="M1045 1713 c-39 -9 -112 -67 -143 -112 -44 -65 -77 -159 -123 -349
-44 -183 -45 -185 -104 -262 -55 -72 -75 -112 -75 -152 0 -42 31 -93 70 -117
l30 -18 -40 -27 c-32 -21 -40 -32 -40 -57 0 -17 5 -39 11 -50 15 -30 92 -75
168 -100 36 -12 70 -25 74 -29 4 -3 -1 -17 -11 -31 -37 -47 -72 -128 -72 -168
0 -60 23 -81 95 -84 76 -4 120 17 235 110 111 90 151 110 229 116 l63 5 -5
-35 c-19 -113 90 -155 224 -87 57 28 89 73 89 124 1 29 7 39 40 62 22 15 40
36 40 45 0 10 -25 56 -55 102 -68 104 -185 333 -229 449 -32 83 -50 149 -96
364 -36 164 -93 251 -194 293 -33 14 -135 19 -181 8z m156 -34 c115 -39 164
-129 213 -394 10 -49 33 -137 52 -194 38 -115 163 -373 242 -498 29 -46 52
-87 52 -93 0 -10 -49 -46 -53 -39 -2 2 -22 49 -45 104 -73 173 -142 285 -142
231 0 -9 25 -67 56 -129 55 -108 95 -204 107 -258 6 -25 6 -25 -51 -21 -45 3
-70 -1 -110 -18 -29 -12 -52 -25 -52 -29 0 -3 -10 -12 -21 -20 -21 -13 -22
-12 -15 28 3 22 17 57 31 77 45 67 29 160 -76 425 -39 101 -77 210 -83 242 -6
31 -14 57 -18 57 -5 0 -8 -3 -8 -7 1 -28 38 -158 76 -268 79 -224 96 -278 101
-335 l5 -55 -84 -2 c-122 -3 -218 -26 -305 -73 -73 -39 -170 -107 -225 -158
l-28 -26 0 25 c0 13 16 49 35 79 47 74 110 204 129 269 27 91 40 246 29 346
l-10 90 -2 -95 c-2 -162 -28 -329 -58 -382 -2 -4 -21 4 -42 18 -24 16 -75 33
-137 45 -54 11 -100 22 -102 24 -2 1 13 12 32 24 79 49 139 151 170 288 19 84
19 83 7 83 -4 0 -18 -33 -30 -73 -12 -40 -35 -101 -51 -135 -32 -68 -31 -68
-110 -27 -64 33 -60 65 18 162 58 72 67 96 116 298 41 172 84 285 128 340 59
71 172 103 259 74z"/>
<path d="M954 1473 c-28 -31 -37 -57 -32 -103 6 -67 74 -67 108 0 24 47 25 78
4 108 -20 29 -50 28 -80 -5z"/>
<path d="M1167 1482 c-21 -23 -22 -83 -3 -120 19 -36 62 -60 84 -46 47 30 29
140 -28 169 -36 19 -34 19 -53 -3z"/>
<path d="M1888 1657 c-49 -25 -74 -47 -111 -97 -29 -38 -43 -66 -37 -70 6 -4
8 -14 4 -23 -4 -10 -1 -17 6 -17 9 0 7 -7 -5 -20 -10 -11 -13 -20 -7 -20 6 0
14 4 17 10 7 11 67 2 76 -12 3 -4 23 5 45 22 21 16 44 30 51 30 7 0 35 28 63
62 57 72 64 105 25 143 -32 33 -51 31 -127 -8z m12 -78 c-43 -39 -35 -35 42
21 40 28 10 -32 -39 -77 -38 -36 -48 -41 -64 -32 -17 9 -18 13 -7 27 11 13 11
14 0 8 -32 -20 11 36 50 64 59 43 70 37 18 -11z"/>
<path d="M1467 1596 c-4 -9 -13 -16 -22 -16 -8 0 -15 -4 -15 -10 0 -5 5 -10
11 -10 7 0 9 -10 5 -25 -6 -23 -5 -24 13 -13 16 9 23 9 37 -3 15 -13 16 -12
10 9 -6 17 -3 27 11 37 17 14 17 14 -4 15 -12 0 -26 7 -31 16 -8 15 -10 15
-15 0z"/>
<path d="M136 1569 c-14 -17 -26 -36 -26 -42 0 -7 36 -34 80 -61 43 -26 80
-52 82 -56 4 -9 123 -90 132 -90 4 0 4 6 -1 13 -4 6 -6 22 -4 35 1 13 -4 25
-13 28 -9 3 -14 9 -11 14 2 4 -7 12 -21 19 -22 9 -25 16 -19 40 5 23 0 36 -26
66 -64 72 -130 85 -173 34z m110 -47 c-3 -3 -1 -11 5 -19 15 -17 -1 -16 -23 1
-23 17 -23 27 -1 19 12 -5 14 -3 8 7 -6 9 -4 11 4 6 7 -5 10 -11 7 -14z"/>
<path d="M730 1580 c-10 -10 -14 -25 -10 -40 4 -18 8 -21 14 -12 6 11 11 11
24 0 13 -11 15 -11 10 3 -4 9 -3 20 1 25 5 5 1 16 -8 24 -14 13 -18 13 -31 0z"/>
<path d="M1978 1437 c-81 -39 -148 -76 -148 -81 0 -5 -8 -15 -17 -23 -17 -13
-16 -13 6 -7 16 4 21 3 17 -5 -5 -7 -1 -9 11 -5 22 8 126 60 173 87 l35 21
-18 -21 c-10 -11 -33 -29 -52 -39 -19 -10 -35 -23 -35 -29 0 -6 -15 -26 -34
-44 -29 -28 -33 -37 -26 -57 7 -18 5 -26 -8 -33 -9 -5 -14 -12 -11 -15 5 -6
311 145 336 166 11 9 10 13 -6 25 -22 15 -43 8 -120 -37 -19 -11 -37 -17 -40
-14 -3 2 24 33 59 69 63 64 63 64 46 89 -9 14 -17 26 -19 26 -1 0 -68 -33
-149 -73z"/>
<path d="M1645 1456 c-17 -9 -19 -15 -10 -31 5 -11 20 -21 33 -22 15 -2 21 1
16 9 -4 6 1 17 11 25 18 12 18 13 -2 13 -12 0 -23 4 -25 8 -1 4 -12 3 -23 -2z"/>
<path d="M63 1428 c-6 -7 -16 -23 -22 -35 -28 -55 68 -133 139 -113 19 5 44 7
55 4 20 -5 20 -5 0 7 -19 12 -19 12 0 19 23 8 45 2 45 -12 0 -5 -11 -21 -25
-36 l-25 -27 23 -11 c12 -6 40 -15 61 -18 35 -7 38 -6 27 7 -8 10 -9 17 -1 22
5 3 10 17 10 30 0 19 4 23 18 18 15 -6 15 -5 3 10 -11 14 -11 17 0 17 8 0 -13
14 -46 30 -66 33 -125 38 -165 15 -35 -20 -50 -18 -50 4 0 24 18 36 45 33 11
-2 0 9 -24 23 -49 29 -55 30 -68 13z"/>
<path d="M541 1427 c-1 -11 -10 -21 -21 -24 -16 -4 -18 -8 -9 -19 6 -8 9 -21
5 -29 -4 -12 -2 -13 13 -6 12 7 22 6 29 -1 9 -9 12 -7 12 8 0 11 5 25 12 32 9
9 8 12 -5 12 -10 0 -22 10 -27 23 -7 18 -9 19 -9 4z"/>
<path d="M1561 1297 c-1 -10 -7 -20 -15 -23 -8 -3 -11 -15 -8 -30 3 -17 8 -22
15 -15 5 5 15 7 22 5 7 -3 15 4 18 15 3 12 1 21 -4 21 -5 0 -14 10 -19 23 -7
17 -9 18 -9 4z"/>
<path d="M670 1260 c0 -5 -7 -10 -16 -10 -13 0 -14 -3 -4 -15 6 -8 9 -18 6
-23 -3 -5 8 -9 24 -9 16 0 27 4 24 9 -3 5 0 15 6 23 10 12 9 15 -4 15 -9 0
-16 5 -16 10 0 6 -4 10 -10 10 -5 0 -10 -4 -10 -10z"/>
<path d="M1757 1160 c-3 -13 -14 -20 -29 -20 -21 -1 -22 -2 -5 -14 13 -10 16
-21 11 -42 l-7 -29 22 19 c21 19 21 19 42 0 21 -19 21 -19 18 7 -2 14 2 34 10
43 12 14 11 16 -9 16 -13 0 -24 8 -27 20 -3 11 -9 20 -13 20 -4 0 -10 -9 -13
-20z"/>
<path d="M420 1130 c0 -19 -10 -24 -37 -21 -18 2 -16 -14 2 -29 10 -8 13 -21
8 -39 -6 -26 -6 -26 16 -7 21 19 21 19 42 0 l21 -19 -6 31 c-5 24 -3 33 8 37
23 9 19 26 -4 20 -14 -4 -22 2 -30 21 -11 31 -20 34 -20 6z"/>
<path d="M712 153 c-19 -8 -33 -51 -26 -80 10 -37 59 -56 96 -37 59 31 43 117
-22 121 -19 1 -41 -1 -48 -4z m78 -23 c33 -33 9 -90 -39 -90 -36 0 -51 17 -51
57 0 51 52 71 90 33z"/>
<path d="M760 126 c0 -2 8 -10 18 -17 15 -13 16 -12 3 4 -13 16 -21 21 -21 13z"/>
<path d="M760 70 c-9 -6 -10 -10 -3 -10 6 0 15 5 18 10 8 12 4 12 -15 0z"/>
</g>
</svg>
